M48
;DRILL file {KiCad (5.0.0)} date 10/21/18 00:27:09
;FORMAT={-:-/ absolute / inch / decimal}
FMAT,2
INCH,TZ
T1C0.0157
T2C0.0315
T3C0.0319
T4C0.0354
T5C0.0394
T6C0.0598
T7C0.0906
%
G90
G05
M72
T1
X1.4134Y-5.0748
X1.4134Y-5.1969
X1.4567Y-4.9331
X1.4606Y-1.6378
X1.4646Y-1.8031
X1.4685Y-3.937
X1.4685Y-4.2087
X1.4685Y-4.4055
X1.4803Y-3.8346
X1.4961Y-1.9213
X1.4961Y-2.0984
X1.5Y-2.5472
X1.5039Y-2.2795
X1.5157Y-5.0748
X1.5157Y-5.1929
X1.5276Y-1.7244
X1.5315Y-4.5433
X1.5354Y-3.0433
X1.5433Y-2.4291
X1.5516Y-4.1496
X1.5669Y-4.0551
X1.5709Y-2.0197
X1.5748Y-4.437
X1.5827Y-3.5551
X1.5906Y-3.8307
X1.5984Y-1.7953
X1.6024Y-3.3937
X1.6024Y-4.9409
X1.6024Y-5.0669
X1.6063Y-2.189
X1.6181Y-1.6339
X1.6181Y-3.937
X1.6339Y-1.4055
X1.6378Y-2.7165
X1.6417Y-4.5197
X1.6772Y-1.7205
X1.6811Y-1.5433
X1.689Y-2.311
X1.689Y-3.0197
X1.689Y-4.0669
X1.6929Y-3.8346
X1.7087Y-4.811
X1.7205Y-2.0236
X1.7283Y-5.0866
X1.7283Y-5.2008
X1.7323Y-1.4449
X1.7323Y-2.563
X1.7362Y-4.5157
X1.7402Y-2.1142
X1.748Y-3.1969
X1.752Y-4.4409
X1.7638Y-3.9528
X1.7638Y-4.9449
X1.7756Y-1.8031
X1.7835Y-2.8228
X1.7874Y-1.6339
X1.8189Y-4.5669
X1.8268Y-4.0591
X1.8307Y-4.8439
X1.8346Y-4.7402
X1.8425Y-5.0787
X1.8425Y-5.189
X1.8465Y-4.9528
X1.8543Y-3.8543
X1.8583Y-1.3976
X1.8622Y-2.0315
X1.8622Y-2.9213
X1.8898Y-2.4173
X1.8937Y-1.5315
X1.8976Y-2.311
X1.8976Y-3.937
X1.9252Y-1.8307
X1.9291Y-3.7559
X1.937Y-4.5039
X1.9606Y-2.1496
X1.9685Y-1.9843
X1.9764Y-4.4055
X1.9843Y-5.1063
X1.9882Y-2.6929
X1.9921Y-5.1732
X1.9961Y-3.8386
X2.0039Y-3.5984
X2.0079Y-3.4173
X2.0118Y-3.1969
X2.0315Y-4.9803
X2.0449Y-3.5016
X2.0591Y-4.5
X2.0669Y-1.6339
X2.0866Y-4.8228
X2.0906Y-4.7008
X2.0915Y-2.6929
X2.0984Y-1.378
X2.1024Y-4.4409
X2.1024Y-5.1614
X2.1142Y-5.0906
X2.126Y-2.0157
X2.1614Y-2.7913
X2.1811Y-2.6378
X2.1811Y-3.7756
X2.189Y-3.874
X2.189Y-4.8228
X2.1969Y-4.4409
X2.2362Y-1.4213
X2.2362Y-4.126
X2.2362Y-4.9488
X2.2362Y-5.1614
X2.2598Y-4.2598
X2.2717Y-4.5
X2.2717Y-4.8386
X2.2835Y-1.6929
X2.2913Y-3.7874
X2.2953Y-2.1063
X2.3228Y-2.685
X2.3425Y-1.9843
X2.3583Y-2.7913
X2.3819Y-1.3268
X2.3819Y-1.5236
X2.3858Y-4.9724
X2.3976Y-4.8189
X2.3976Y-5.1575
X2.4291Y-1.5866
X2.4409Y-1.3661
X2.4567Y-4.4488
X2.4606Y-3.8386
X2.4685Y-3.2441
X2.4843Y-2.7283
X2.4882Y-4.6024
X2.5Y-3.4055
X2.5Y-3.5906
X2.5Y-4.9449
X2.5039Y-4.1654
X2.5197Y-3.0236
X2.5276Y-3.7323
X2.5354Y-4.7402
X2.5433Y-3.8543
X2.5433Y-5.1457
X2.563Y-2.7835
X2.5709Y-4.8622
X2.5984Y-2.4252
X2.6024Y-1.3898
X2.6142Y-2.0591
X2.6142Y-2.315
X2.626Y-3.4921
X2.6299Y-3.2283
X2.6378Y-4.5315
X2.6732Y-3.5787
X2.6772Y-5.1575
X2.685Y-2.5157
X2.7362Y-5.0157
X2.7402Y-4.7795
X2.7559Y-2.815
X2.7756Y-2.3898
X2.7913Y-2.2598
X2.7953Y-3.0551
X2.8031Y-3.2165
X2.8031Y-3.5827
X2.8071Y-4.4724
X2.8189Y-1.5394
X2.8228Y-2.0984
X2.8307Y-4.4213
X2.8346Y-1.8228
X2.8346Y-1.9606
X2.8465Y-4.9094
X2.8504Y-4.6535
X2.8543Y-5.1457
X2.8661Y-1.6024
X2.8898Y-2.374
X2.8898Y-2.4882
X2.8937Y-2.2717
X2.8976Y-2.7205
X2.8976Y-3.0079
X2.9291Y-1.9921
X2.937Y-4.0827
X2.9449Y-3.5787
X2.9488Y-4.2205
X2.9646Y-1.8701
X2.9685Y-4.7874
X2.9764Y-5.0354
X3.0197Y-2.1457
X3.0197Y-2.6417
X3.0276Y-1.3701
X3.0315Y-2.752
X3.0354Y-4.6299
X3.0512Y-2.9134
X3.0551Y-3.7008
X3.0551Y-4.5394
X3.0591Y-2.3622
X3.063Y-4.4055
X3.0669Y-4.189
X3.0669Y-4.2835
X3.0748Y-3.6378
X3.0866Y-4.8819
X3.1024Y-1.9843
X3.1024Y-5.1417
X3.122Y-3.9685
X3.1299Y-2.6417
X3.1336Y-3.252
X3.1378Y-1.4055
X3.1378Y-3.8543
X3.1575Y-1.7598
X3.1654Y-3.5472
X3.1693Y-2.1969
X3.1929Y-3.6713
X3.1929Y-5.0472
X3.2047Y-4.7913
X3.2126Y-1.6063
X3.2205Y-1.3976
X3.2283Y-1.8268
X3.2283Y-4.6654
X3.2323Y-4.5118
X3.2402Y-1.9843
X3.252Y-3.3268
X3.252Y-3.8543
X3.2559Y-2.8543
X3.2598Y-4.3583
X3.2677Y-1.7087
X3.2953Y-4.8898
X3.3031Y-3.5354
X3.315Y-2.3622
X3.3189Y-2.4331
X3.3425Y-3.9724
X3.3465Y-2.1417
X3.3499Y-4.4803
X3.3543Y-5.1535
X3.3819Y-3.5394
X3.4016Y-4.7913
X3.4055Y-4.9291
X3.4094Y-3.8898
X3.4449Y-2.5315
X3.4449Y-2.8622
X3.4528Y-2.4493
X3.4646Y-3.5394
X3.4803Y-2.3976
X3.4882Y-3.4764
X3.5079Y-2.4488
X3.5276Y-3.9882
X3.5591Y-5.1378
X3.5906Y-2.878
X3.5984Y-4.3425
X3.6134Y-3.6378
X3.6457Y-2.1417
X3.6457Y-3.4882
X3.6732Y-2.3701
X3.6929Y-2.5748
X3.6929Y-4.689
X3.6982Y-4.2087
X3.7165Y-1.9843
X3.7205Y-4.9055
X3.7244Y-5.1457
X3.7323Y-2.5079
X3.7441Y-2.4606
X3.7559Y-1.7362
X3.7559Y-3.5787
X3.7638Y-2.6732
X3.7638Y-3.8622
X3.7717Y-1.3583
X3.7717Y-2.1417
X3.7874Y-2.0866
X3.7992Y-1.4606
X3.7992Y-1.5394
X3.8071Y-4.9173
X3.8189Y-2.6417
X3.8268Y-2.7638
X3.8583Y-1.9843
X3.8622Y-1.6969
X3.8661Y-2.0709
X3.8661Y-5.
X3.8701Y-1.8976
X3.8701Y-3.9646
X3.8937Y-3.6496
X3.8976Y-4.5118
X3.8976Y-4.5787
X3.9252Y-3.2165
X3.9331Y-2.1575
X3.9409Y-2.3228
X3.9528Y-4.7598
X3.9567Y-2.8031
X3.9567Y-2.9173
X3.9567Y-3.0748
X3.9567Y-3.3898
X3.9803Y-3.7598
X4.0118Y-2.3268
X4.0118Y-4.4094
X4.0197Y-2.5118
X4.0197Y-3.5
X4.0354Y-3.3228
X4.0472Y-4.9213
X4.05Y-2.6457
X4.0512Y-2.8937
X4.0512Y-3.
X4.0591Y-3.0984
X4.0827Y-3.437
X4.0906Y-2.563
X4.1102Y-3.622
X4.122Y-4.2244
X4.122Y-4.4606
X4.1299Y-2.3189
X4.1378Y-4.126
X4.1378Y-4.3268
X4.1457Y-4.6811
X4.1496Y-4.8386
X4.1535Y-3.5827
X4.1535Y-5.1378
X4.1654Y-4.5906
X4.1732Y-3.4331
X4.1732Y-3.8189
X4.1732Y-4.9567
X4.1811Y-1.5039
X4.1811Y-3.0748
X4.1811Y-3.9252
X4.185Y-2.9843
X4.1969Y-1.3504
X4.2047Y-2.5945
X4.2087Y-4.0866
X4.2165Y-2.2559
X4.2205Y-2.3622
X4.2205Y-2.4882
X4.2283Y-1.6693
X4.2362Y-2.7323
X4.2677Y-4.7126
X4.2795Y-3.5748
X4.2874Y-3.7047
X4.3031Y-1.7638
X4.3031Y-3.8819
X4.3031Y-4.7598
X4.3189Y-3.2244
X4.3228Y-4.4843
X4.3268Y-3.0315
X4.3268Y-4.3386
X4.3346Y-2.6811
X4.3346Y-4.0472
X4.3386Y-4.1929
X4.3504Y-2.8622
X4.3858Y-4.8976
X4.3976Y-3.7205
X4.4094Y-5.1417
X4.4173Y-1.4803
X4.4213Y-3.8819
X4.4291Y-1.6378
X4.4291Y-4.6614
X4.4291Y-4.7598
X4.4331Y-3.2835
X4.4331Y-4.4646
X4.4437Y-3.0394
X4.4646Y-4.5079
X4.4646Y-4.9764
X4.4882Y-2.4528
X4.5079Y-2.5118
X4.5118Y-4.8268
X4.5315Y-4.5079
X4.5354Y-4.0709
X4.5354Y-4.2677
X4.5433Y-2.9843
X4.5551Y-4.7992
X4.5669Y-1.5512
X4.6102Y-1.8189
X4.6102Y-4.622
X4.6181Y-4.2736
X4.622Y-4.7244
X4.6299Y-2.0354
X4.6339Y-2.2283
X4.6496Y-1.6575
X4.6614Y-3.2559
X4.6654Y-2.9488
X4.685Y-4.6339
X4.6969Y-1.3858
X4.7008Y-1.9094
X4.7008Y-2.4685
X4.7008Y-3.1102
X4.7008Y-3.2087
X4.7087Y-4.7165
X4.7126Y-2.122
X4.7323Y-1.7598
X4.7323Y-2.2795
X4.7323Y-2.8465
X4.748Y-2.9724
X4.752Y-3.3976
X4.7559Y-1.378
X4.7559Y-3.2165
X4.7638Y-4.2992
X4.7835Y-4.9803
X4.7874Y-4.874
X4.7913Y-4.6378
X4.8228Y-3.3031
X4.8268Y-2.9213
X4.8268Y-3.4449
X4.8307Y-3.0748
X4.8307Y-4.2874
X4.8346Y-2.7874
X4.8504Y-4.7402
X4.8622Y-2.3189
X4.8661Y-1.3543
X4.8661Y-2.4567
X4.878Y-4.6378
X4.9134Y-2.5118
X4.9449Y-4.7205
X4.9528Y-4.6299
X4.9606Y-3.4685
X4.9606Y-3.6024
X4.9685Y-1.4646
X5.0157Y-4.2126
X5.0197Y-2.0591
X5.0315Y-4.9882
X5.0394Y-2.4606
X5.0394Y-5.0394
X5.0433Y-4.3504
X5.0433Y-4.8898
X5.0472Y-2.5551
X5.0551Y-3.937
X5.0709Y-2.811
X5.0748Y-5.1732
X5.0906Y-1.3622
X5.126Y-1.8976
X5.126Y-2.2402
X5.1339Y-5.0197
X5.1378Y-2.6378
X5.1417Y-2.2992
X5.1457Y-3.7087
X5.1457Y-5.1063
X5.1496Y-2.5315
X5.1575Y-1.5984
X5.1614Y-1.4882
X5.1654Y-4.9331
X5.1732Y-2.8386
X5.1732Y-4.7992
X5.1772Y-4.6496
X5.1811Y-3.9488
X5.1969Y-3.1378
X5.2008Y-4.2205
X5.2047Y-4.3976
X5.2126Y-2.0984
X5.2126Y-2.7638
X5.2283Y-3.3898
X5.2323Y-5.1575
X5.2402Y-2.5394
X5.248Y-2.6496
X5.252Y-1.437
X5.2598Y-3.4646
X5.2598Y-3.6339
X5.2638Y-1.6142
X5.2638Y-1.8031
X5.2638Y-4.5039
X5.2677Y-1.9803
X5.2677Y-3.8307
X5.2677Y-4.0906
X5.2717Y-4.3071
X5.2717Y-4.8976
X5.2756Y-4.7165
X5.2795Y-5.0354
T2
X2.2638Y-3.4606
X2.2638Y-3.5591
X1.9354Y-4.3465
X1.9354Y-4.6465
X2.0354Y-4.3465
X2.0354Y-4.6465
X2.1354Y-4.3465
X2.1354Y-4.6465
X2.2354Y-4.3465
X2.2354Y-4.6465
X2.3354Y-4.3465
X2.3354Y-4.6465
X2.4354Y-4.3465
X2.4354Y-4.6465
X2.5354Y-4.3465
X2.5354Y-4.6465
X4.5197Y-1.6142
X4.5197Y-1.7142
X4.5197Y-1.8142
X4.5197Y-1.9142
X4.5197Y-2.0142
X4.5197Y-2.1142
X4.5197Y-2.2142
X4.8197Y-1.6142
X4.8197Y-1.7142
X4.8197Y-1.8142
X4.8197Y-1.9142
X4.8197Y-2.0142
X4.8197Y-2.1142
X4.8197Y-2.2142
X4.2094Y-1.5669
X4.3094Y-1.5669
X4.4094Y-1.5669
X4.9409Y-1.7087
X5.0409Y-1.7087
X5.1409Y-1.7087
X2.553Y-3.9872
X2.653Y-3.9872
X2.753Y-3.9872
X3.0607Y-1.5361
X3.0607Y-1.6361
X3.0607Y-1.7361
X3.0607Y-1.8361
X3.3607Y-1.5361
X3.3607Y-1.6361
X3.3607Y-1.7361
X3.3607Y-1.8361
X4.6102Y-2.8031
X4.6102Y-2.9031
X4.6102Y-3.0031
X4.6102Y-3.1031
X4.6102Y-3.2031
X4.6102Y-3.3031
X4.6102Y-3.4031
X4.9102Y-2.8031
X4.9102Y-2.9031
X4.9102Y-3.0031
X4.9102Y-3.1031
X4.9102Y-3.2031
X4.9102Y-3.3031
X4.9102Y-3.4031
X2.2638Y-3.1142
X2.2638Y-3.2126
X4.2979Y-2.7625
X4.3979Y-2.7625
X4.4979Y-2.7625
X3.0597Y-2.2745
X3.1597Y-2.2745
X3.2597Y-2.2745
X2.1327Y-2.4972
X2.3248Y-2.4972
X1.5Y-4.3425
X1.5Y-4.6425
X1.6Y-4.3425
X1.6Y-4.6425
X1.7Y-4.3425
X1.7Y-4.6425
X1.8Y-4.3425
X1.8Y-4.6425
X5.0276Y-2.9134
X5.1276Y-2.9134
X5.2276Y-2.9134
X4.2979Y-2.6009
X4.3979Y-2.6009
X4.4979Y-2.6009
X2.0825Y-1.9029
X2.0825Y-2.2029
X2.1825Y-1.9029
X2.1825Y-2.2029
X2.2825Y-1.9029
X2.2825Y-2.2029
X2.3825Y-1.9029
X2.3825Y-2.2029
X2.4825Y-1.9029
X2.4825Y-2.2029
X2.5825Y-1.9029
X2.5825Y-2.2029
X2.6825Y-1.9029
X2.6825Y-2.2029
X4.2087Y-1.4055
X4.3087Y-1.4055
X4.4087Y-1.4055
X3.0551Y-3.3236
X3.0551Y-3.4236
X3.0551Y-3.5236
X2.9797Y-2.6945
X2.9797Y-2.9945
X3.0797Y-2.6945
X3.0797Y-2.9945
X3.1797Y-2.6945
X3.1797Y-2.9945
X3.2797Y-2.6945
X3.2797Y-2.9945
X3.3797Y-2.6945
X3.3797Y-2.9945
X3.4797Y-2.6945
X3.4797Y-2.9945
X3.5797Y-2.6945
X3.5797Y-2.9945
T3
X1.8228Y-2.1075
X1.8228Y-2.2075
X1.9016Y-2.1075
X1.9016Y-2.2075
T4
X2.6614Y-2.5984
X2.7614Y-2.5984
X2.7559Y-3.3819
X2.7559Y-3.4819
T5
X3.9591Y-5.0472
X4.0591Y-5.0472
X2.2205Y-5.0354
X2.3205Y-5.0354
X2.4205Y-5.0354
X5.1181Y-4.0945
X5.1181Y-4.1945
X5.1181Y-4.2945
X4.0906Y-1.3819
X4.0906Y-1.4819
X4.0906Y-1.5819
X3.5913Y-3.3583
X3.6913Y-3.3583
X3.7913Y-3.3583
X3.7721Y-4.3828
X3.7721Y-4.4828
X3.7721Y-4.5828
X4.689Y-3.7638
X4.689Y-3.8638
X4.689Y-3.9638
X1.4636Y-5.
X1.5636Y-5.
X1.6636Y-5.
X4.9759Y-3.7652
X4.9759Y-3.8652
X4.9759Y-3.9652
X1.7362Y-3.5866
X1.7362Y-3.6866
X2.5906Y-1.5614
X2.5906Y-1.6614
X2.5906Y-1.7614
X2.6906Y-1.5614
X2.6906Y-1.6614
X2.6906Y-1.7614
X2.874Y-3.8961
X2.874Y-3.9961
X4.0308Y-2.3937
X4.1308Y-2.3937
X3.9138Y-4.2143
X3.9138Y-4.3143
X3.9138Y-4.4143
X4.252Y-2.9457
X4.252Y-3.0457
X4.252Y-3.1457
X3.1705Y-4.2293
X3.2705Y-4.2293
X3.3705Y-4.2293
X3.9961Y-1.8354
X3.9961Y-1.9354
X3.9961Y-2.0354
X2.5157Y-1.3937
X2.7157Y-1.3937
X4.0472Y-4.585
X4.0472Y-4.685
X4.0472Y-4.785
X3.3465Y-3.3583
X3.4465Y-3.3583
X4.1244Y-3.3622
X4.2244Y-3.3622
X5.2323Y-2.311
X5.2323Y-2.411
X4.1063Y-2.9449
X4.1063Y-3.0449
X4.1063Y-3.1449
X3.3843Y-1.3976
X3.4843Y-1.3976
X3.378Y-1.9882
X3.478Y-1.9882
X4.4528Y-4.1205
X4.4528Y-4.2205
X4.4528Y-4.3205
X3.7504Y-4.8228
X3.8504Y-4.8228
X4.0299Y-2.252
X4.1299Y-2.252
X3.7441Y-2.7717
X3.7441Y-2.8717
X3.7441Y-2.9717
X1.9173Y-4.7976
X1.9173Y-4.8976
X4.8322Y-3.7652
X4.8322Y-3.8652
X4.8322Y-3.9652
X1.7362Y-3.3425
X1.7362Y-3.4425
X1.878Y-3.3016
X1.878Y-3.4016
X1.878Y-3.5016
X1.878Y-3.6016
X5.0866Y-4.6835
X5.0866Y-4.7835
X4.374Y-4.611
X4.374Y-4.711
X4.374Y-4.811
X1.4636Y-5.1417
X1.5636Y-5.1417
X1.6636Y-5.1417
X3.5299Y-4.1102
X3.6299Y-4.1102
X3.6299Y-1.7795
X3.6299Y-1.8795
X3.6299Y-1.9795
X3.878Y-2.2701
X3.878Y-2.3701
X4.1244Y-3.5059
X4.2244Y-3.5059
X4.2559Y-5.0472
X4.3559Y-5.0472
X4.1417Y-1.8354
X4.1417Y-1.9354
X4.1417Y-2.0354
X4.6598Y-3.5472
X4.7598Y-3.5472
X4.8598Y-3.5472
X2.111Y-3.9882
X2.211Y-3.9882
X2.311Y-3.9882
X4.5472Y-3.7638
X4.5472Y-3.8638
X4.5472Y-3.9638
X4.563Y-2.378
X4.663Y-2.378
X4.763Y-2.378
X2.9094Y-4.3346
X2.9094Y-4.4346
X3.6299Y-1.4315
X3.6299Y-1.5315
X3.6299Y-1.6315
T6
X1.5039Y-3.2685
X1.5039Y-3.4685
X1.5039Y-3.6685
T7
X1.7165Y-1.9213
X1.7165Y-2.3937
T5
X1.5039Y-1.4528G85X1.5039Y-1.5315
G05
X1.9646Y-1.7008G85X1.8858Y-1.7008
G05
X2.0039Y-1.4528G85X2.0039Y-1.5315
G05
X1.5118Y-2.8071G85X1.5118Y-2.8858
G05
X1.9724Y-3.0551G85X1.8937Y-3.0551
G05
X2.0118Y-2.8071G85X2.0118Y-2.8858
G05
T0
M30
