G04 #@! TF.GenerationSoftware,KiCad,Pcbnew,(5.0.0)*
G04 #@! TF.CreationDate,2018-10-21T00:29:04+08:00*
G04 #@! TF.ProjectId,SLMMK1,534C4D4D4B312E6B696361645F706362,rev?*
G04 #@! TF.SameCoordinates,Original*
G04 #@! TF.FileFunction,Soldermask,Top*
G04 #@! TF.FilePolarity,Negative*
%FSLAX46Y46*%
G04 Gerber Fmt 4.6, Leading zero omitted, Abs format (unit mm)*
G04 Created by KiCad (PCBNEW (5.0.0)) date 10/21/18 00:29:04*
%MOMM*%
%LPD*%
G01*
G04 APERTURE LIST*
%ADD10R,2.100000X2.100000*%
%ADD11O,2.100000X2.100000*%
%ADD12R,1.900000X1.700000*%
%ADD13C,2.400000*%
%ADD14O,2.400000X2.400000*%
%ADD15R,1.650000X1.900000*%
%ADD16R,1.900000X1.650000*%
%ADD17R,2.000000X2.000000*%
%ADD18C,2.000000*%
%ADD19R,1.500000X1.500000*%
%ADD20R,2.200000X2.200000*%
%ADD21C,2.200000*%
%ADD22C,1.920000*%
%ADD23C,3.100000*%
%ADD24R,2.900000X4.400000*%
%ADD25R,4.400000X2.900000*%
%ADD26R,3.400000X3.400000*%
%ADD27C,3.400000*%
%ADD28R,1.920000X1.920000*%
%ADD29R,1.700000X1.900000*%
%ADD30O,2.000000X2.000000*%
%ADD31R,1.900000X1.000000*%
%ADD32R,1.000000X1.900000*%
%ADD33C,1.900000*%
G04 APERTURE END LIST*
D10*
G04 #@! TO.C,J8*
X73900000Y-112640000D03*
D11*
X73900000Y-110100000D03*
G04 #@! TD*
D10*
G04 #@! TO.C,SW10*
X115500000Y-95600000D03*
D11*
X115500000Y-98140000D03*
X115500000Y-100680000D03*
G04 #@! TD*
D10*
G04 #@! TO.C,RV48*
X113100000Y-109740000D03*
D11*
X113100000Y-107200000D03*
X113100000Y-104660000D03*
G04 #@! TD*
D12*
G04 #@! TO.C,R75*
X127600000Y-79800000D03*
X130300000Y-79800000D03*
G04 #@! TD*
D13*
G04 #@! TO.C,L1*
X68980000Y-35400000D03*
D14*
X63900000Y-35400000D03*
G04 #@! TD*
D10*
G04 #@! TO.C,BT1*
X44100000Y-84900000D03*
D11*
X44100000Y-87440000D03*
G04 #@! TD*
D10*
G04 #@! TO.C,BT2*
X44100000Y-91100000D03*
D11*
X44100000Y-93640000D03*
G04 #@! TD*
D15*
G04 #@! TO.C,C1*
X62100000Y-104600000D03*
X62100000Y-107100000D03*
G04 #@! TD*
G04 #@! TO.C,C2*
X64800000Y-107100000D03*
X64800000Y-104600000D03*
G04 #@! TD*
G04 #@! TO.C,C3*
X36900000Y-120900000D03*
X36900000Y-123400000D03*
G04 #@! TD*
G04 #@! TO.C,C4*
X111800000Y-77100000D03*
X111800000Y-74600000D03*
G04 #@! TD*
G04 #@! TO.C,C5*
X119500000Y-125300000D03*
X119500000Y-127800000D03*
G04 #@! TD*
D16*
G04 #@! TO.C,C6*
X117100000Y-68300000D03*
X119600000Y-68300000D03*
G04 #@! TD*
G04 #@! TO.C,C7*
X114650000Y-38200000D03*
X117150000Y-38200000D03*
G04 #@! TD*
G04 #@! TO.C,C8*
X130100000Y-70000000D03*
X127600000Y-70000000D03*
G04 #@! TD*
G04 #@! TO.C,C9*
X128300000Y-39400000D03*
X125800000Y-39400000D03*
G04 #@! TD*
G04 #@! TO.C,C10*
X127700000Y-81900000D03*
X130200000Y-81900000D03*
G04 #@! TD*
G04 #@! TO.C,C11*
X109400000Y-46000000D03*
X111900000Y-46000000D03*
G04 #@! TD*
G04 #@! TO.C,C12*
X126200000Y-53500000D03*
X128700000Y-53500000D03*
G04 #@! TD*
D15*
G04 #@! TO.C,C13*
X85700000Y-79300000D03*
X85700000Y-81800000D03*
G04 #@! TD*
G04 #@! TO.C,C14*
X80800000Y-79200000D03*
X80800000Y-81700000D03*
G04 #@! TD*
G04 #@! TO.C,C15*
X85700000Y-62000000D03*
X85700000Y-64500000D03*
G04 #@! TD*
D17*
G04 #@! TO.C,C16*
X57500000Y-79100000D03*
D18*
X57500000Y-81600000D03*
G04 #@! TD*
D15*
G04 #@! TO.C,C17*
X77716000Y-64376000D03*
X77716000Y-61876000D03*
G04 #@! TD*
D17*
G04 #@! TO.C,C18*
X57500000Y-87900000D03*
D18*
X57500000Y-90400000D03*
G04 #@! TD*
D16*
G04 #@! TO.C,C19*
X49400000Y-63800000D03*
X46900000Y-63800000D03*
G04 #@! TD*
G04 #@! TO.C,C20*
X55240000Y-58856000D03*
X52740000Y-58856000D03*
G04 #@! TD*
G04 #@! TO.C,C21*
X58288000Y-58856000D03*
X60788000Y-58856000D03*
G04 #@! TD*
G04 #@! TO.C,C22*
X84100000Y-103900000D03*
X86600000Y-103900000D03*
G04 #@! TD*
D15*
G04 #@! TO.C,C23*
X73000000Y-36600000D03*
X73000000Y-34100000D03*
G04 #@! TD*
G04 #@! TO.C,C24*
X75200000Y-36600000D03*
X75200000Y-34100000D03*
G04 #@! TD*
D19*
G04 #@! TO.C,D1*
X56700000Y-121150000D03*
X56700000Y-123950000D03*
G04 #@! TD*
G04 #@! TO.C,D2*
X59250000Y-121150000D03*
X59250000Y-123950000D03*
G04 #@! TD*
G04 #@! TO.C,D3*
X45200000Y-130600000D03*
X48000000Y-130600000D03*
G04 #@! TD*
G04 #@! TO.C,D4*
X48000000Y-127600000D03*
X45200000Y-127600000D03*
G04 #@! TD*
G04 #@! TO.C,D5*
X51700000Y-104400000D03*
X51700000Y-107200000D03*
G04 #@! TD*
D20*
G04 #@! TO.C,D6*
X70000000Y-85900000D03*
D21*
X70000000Y-88440000D03*
G04 #@! TD*
D19*
G04 #@! TO.C,D7*
X73000000Y-104500000D03*
X73000000Y-107300000D03*
G04 #@! TD*
G04 #@! TO.C,D8*
X70400000Y-109500000D03*
X70400000Y-112300000D03*
G04 #@! TD*
G04 #@! TO.C,D9*
X97000000Y-79300000D03*
X97000000Y-82100000D03*
G04 #@! TD*
G04 #@! TO.C,D10*
X93942722Y-79265937D03*
X93942722Y-82065937D03*
G04 #@! TD*
G04 #@! TO.C,D11*
X133700000Y-52200000D03*
X133700000Y-55000000D03*
G04 #@! TD*
G04 #@! TO.C,D12*
X131300000Y-52200000D03*
X131300000Y-55000000D03*
G04 #@! TD*
D20*
G04 #@! TO.C,D13*
X70140000Y-66000000D03*
D21*
X67600000Y-66000000D03*
G04 #@! TD*
D19*
G04 #@! TO.C,D14*
X58000000Y-40600000D03*
X58000000Y-37800000D03*
G04 #@! TD*
G04 #@! TO.C,D15*
X55400000Y-40600000D03*
X55400000Y-37800000D03*
G04 #@! TD*
D22*
G04 #@! TO.C,J2*
X48300000Y-53530000D03*
X48300000Y-56070000D03*
X46300000Y-56070000D03*
X46300000Y-53530000D03*
D23*
X43600000Y-48800000D03*
X43600000Y-60800000D03*
G04 #@! TD*
D10*
G04 #@! TO.C,J3*
X68340000Y-44740000D03*
D11*
X65800000Y-44740000D03*
X68340000Y-42200000D03*
X65800000Y-42200000D03*
X68340000Y-39660000D03*
X65800000Y-39660000D03*
G04 #@! TD*
D24*
G04 #@! TO.C,J6*
X38400000Y-72300000D03*
D25*
X49100000Y-77600000D03*
D24*
X51100000Y-72300000D03*
G04 #@! TD*
G04 #@! TO.C,J7*
X38200000Y-37900000D03*
D25*
X48900000Y-43200000D03*
D24*
X50900000Y-37900000D03*
G04 #@! TD*
D26*
G04 #@! TO.C,J9*
X38200000Y-93180000D03*
D27*
X38200000Y-88100000D03*
X38200000Y-83020000D03*
G04 #@! TD*
D22*
G04 #@! TO.C,Q1*
X111706392Y-70166319D03*
X109166392Y-70166319D03*
D28*
X114246392Y-70166319D03*
G04 #@! TD*
D22*
G04 #@! TO.C,Q2*
X109460000Y-39800000D03*
X106920000Y-39800000D03*
D28*
X112000000Y-39800000D03*
G04 #@! TD*
D22*
G04 #@! TO.C,Q3*
X111706392Y-66062300D03*
X114246392Y-66062300D03*
D28*
X109166392Y-66062300D03*
G04 #@! TD*
D22*
G04 #@! TO.C,Q4*
X109440000Y-35700000D03*
X111980000Y-35700000D03*
D28*
X106900000Y-35700000D03*
G04 #@! TD*
D22*
G04 #@! TO.C,Q5*
X130240000Y-74000000D03*
X132780000Y-74000000D03*
D28*
X127700000Y-74000000D03*
G04 #@! TD*
D22*
G04 #@! TO.C,Q6*
X128040000Y-43400000D03*
X130580000Y-43400000D03*
D28*
X125500000Y-43400000D03*
G04 #@! TD*
D22*
G04 #@! TO.C,Q7*
X80256000Y-57772000D03*
X82796000Y-57772000D03*
D28*
X77716000Y-57772000D03*
G04 #@! TD*
D22*
G04 #@! TO.C,Q8*
X67387001Y-101275001D03*
X69927001Y-101275001D03*
D28*
X64847001Y-101275001D03*
G04 #@! TD*
D22*
G04 #@! TO.C,Q9*
X77600000Y-86960000D03*
X77600000Y-84420000D03*
D28*
X77600000Y-89500000D03*
G04 #@! TD*
D29*
G04 #@! TO.C,R1*
X67600000Y-104500000D03*
X67600000Y-107200000D03*
G04 #@! TD*
D12*
G04 #@! TO.C,R2*
X69850000Y-97400000D03*
X67150000Y-97400000D03*
G04 #@! TD*
D29*
G04 #@! TO.C,R3*
X67600000Y-109600000D03*
X67600000Y-112300000D03*
G04 #@! TD*
G04 #@! TO.C,R4*
X62200000Y-99400000D03*
X62200000Y-102100000D03*
G04 #@! TD*
G04 #@! TO.C,R5*
X51800000Y-121050000D03*
X51800000Y-123750000D03*
G04 #@! TD*
D12*
G04 #@! TO.C,R6*
X52900000Y-127700000D03*
X50200000Y-127700000D03*
G04 #@! TD*
D29*
G04 #@! TO.C,R7*
X42200000Y-120800000D03*
X42200000Y-123500000D03*
G04 #@! TD*
G04 #@! TO.C,R8*
X54200000Y-121150000D03*
X54200000Y-123850000D03*
G04 #@! TD*
G04 #@! TO.C,R9*
X62000000Y-121050000D03*
X62000000Y-123750000D03*
G04 #@! TD*
G04 #@! TO.C,R10*
X80800000Y-84700000D03*
X80800000Y-87400000D03*
G04 #@! TD*
G04 #@! TO.C,R11*
X75100000Y-79200000D03*
X75100000Y-81900000D03*
G04 #@! TD*
G04 #@! TO.C,R12*
X39400000Y-123500000D03*
X39400000Y-120800000D03*
G04 #@! TD*
G04 #@! TO.C,R13*
X59300000Y-104600000D03*
X59300000Y-107300000D03*
G04 #@! TD*
G04 #@! TO.C,R14*
X44800000Y-123600000D03*
X44800000Y-120900000D03*
G04 #@! TD*
D12*
G04 #@! TO.C,R15*
X127700000Y-89710000D03*
X130400000Y-89710000D03*
G04 #@! TD*
G04 #@! TO.C,R16*
X89210371Y-123923797D03*
X91910371Y-123923797D03*
G04 #@! TD*
G04 #@! TO.C,R17*
X89210371Y-126023797D03*
X91910371Y-126023797D03*
G04 #@! TD*
G04 #@! TO.C,R18*
X89210371Y-119923797D03*
X91910371Y-119923797D03*
G04 #@! TD*
G04 #@! TO.C,R19*
X126000000Y-60600000D03*
X128700000Y-60600000D03*
G04 #@! TD*
G04 #@! TO.C,R20*
X89210371Y-121923797D03*
X91910371Y-121923797D03*
G04 #@! TD*
G04 #@! TO.C,R21*
X89810371Y-114823797D03*
X92510371Y-114823797D03*
G04 #@! TD*
G04 #@! TO.C,R22*
X92510371Y-117023797D03*
X89810371Y-117023797D03*
G04 #@! TD*
G04 #@! TO.C,R23*
X78909695Y-103972987D03*
X81609695Y-103972987D03*
G04 #@! TD*
G04 #@! TO.C,R24*
X92500000Y-110223797D03*
X89800000Y-110223797D03*
G04 #@! TD*
G04 #@! TO.C,R25*
X89800000Y-112523797D03*
X92500000Y-112523797D03*
G04 #@! TD*
G04 #@! TO.C,R26*
X92710371Y-108023797D03*
X90010371Y-108023797D03*
G04 #@! TD*
D29*
G04 #@! TO.C,R27*
X64400000Y-67300000D03*
X64400000Y-64600000D03*
G04 #@! TD*
G04 #@! TO.C,R28*
X126100000Y-125200000D03*
X126100000Y-127900000D03*
G04 #@! TD*
G04 #@! TO.C,R29*
X64000000Y-61300000D03*
X64000000Y-58600000D03*
G04 #@! TD*
G04 #@! TO.C,R30*
X120800000Y-106700000D03*
X120800000Y-104000000D03*
G04 #@! TD*
G04 #@! TO.C,R31*
X128600000Y-112650000D03*
X128600000Y-115350000D03*
G04 #@! TD*
G04 #@! TO.C,R32*
X130600000Y-112650000D03*
X130600000Y-115350000D03*
G04 #@! TD*
G04 #@! TO.C,R33*
X123100000Y-106700000D03*
X123100000Y-104000000D03*
G04 #@! TD*
G04 #@! TO.C,R34*
X123950000Y-109700000D03*
X123950000Y-112400000D03*
G04 #@! TD*
G04 #@! TO.C,R35*
X123500000Y-127900000D03*
X123500000Y-125200000D03*
G04 #@! TD*
G04 #@! TO.C,R36*
X126300000Y-112400000D03*
X126300000Y-109700000D03*
G04 #@! TD*
G04 #@! TO.C,R37*
X55200000Y-43000000D03*
X55200000Y-45700000D03*
G04 #@! TD*
G04 #@! TO.C,R38*
X58100000Y-43000000D03*
X58100000Y-45700000D03*
G04 #@! TD*
G04 #@! TO.C,R39*
X125400000Y-106700000D03*
X125400000Y-104000000D03*
G04 #@! TD*
G04 #@! TO.C,R40*
X114700000Y-120200000D03*
X114700000Y-117500000D03*
G04 #@! TD*
G04 #@! TO.C,R41*
X129800000Y-98400000D03*
X129800000Y-101100000D03*
G04 #@! TD*
G04 #@! TO.C,R42*
X117300000Y-109700000D03*
X117300000Y-112400000D03*
G04 #@! TD*
G04 #@! TO.C,R43*
X60600000Y-43000000D03*
X60600000Y-45700000D03*
G04 #@! TD*
G04 #@! TO.C,R44*
X88900000Y-41300000D03*
X88900000Y-38600000D03*
G04 #@! TD*
G04 #@! TO.C,R45*
X114700000Y-125200000D03*
X114700000Y-127900000D03*
G04 #@! TD*
G04 #@! TO.C,R46*
X119500000Y-112450000D03*
X119500000Y-109750000D03*
G04 #@! TD*
G04 #@! TO.C,R47*
X117400000Y-106800000D03*
X117400000Y-104100000D03*
G04 #@! TD*
G04 #@! TO.C,R48*
X88800000Y-47100000D03*
X88800000Y-44400000D03*
G04 #@! TD*
G04 #@! TO.C,R49*
X117000000Y-125200000D03*
X117000000Y-127900000D03*
G04 #@! TD*
G04 #@! TO.C,R50*
X103540000Y-69120000D03*
X103540000Y-71820000D03*
G04 #@! TD*
G04 #@! TO.C,R51*
X68200000Y-61300000D03*
X68200000Y-58600000D03*
G04 #@! TD*
D12*
G04 #@! TO.C,R52*
X95600000Y-46600000D03*
X98300000Y-46600000D03*
G04 #@! TD*
D29*
G04 #@! TO.C,R53*
X63000000Y-42900000D03*
X63000000Y-45600000D03*
G04 #@! TD*
D12*
G04 #@! TO.C,R54*
X114000000Y-82200000D03*
X111300000Y-82200000D03*
G04 #@! TD*
D29*
G04 #@! TO.C,R56*
X114100000Y-77200000D03*
X114100000Y-74500000D03*
G04 #@! TD*
D12*
G04 #@! TO.C,R57*
X111400000Y-51000000D03*
X108700000Y-51000000D03*
G04 #@! TD*
G04 #@! TO.C,R59*
X109300000Y-43500000D03*
X112000000Y-43500000D03*
G04 #@! TD*
G04 #@! TO.C,R60*
X114070000Y-89080000D03*
X111370000Y-89080000D03*
G04 #@! TD*
G04 #@! TO.C,R61*
X111400000Y-55800000D03*
X108700000Y-55800000D03*
G04 #@! TD*
G04 #@! TO.C,R62*
X111370000Y-91280000D03*
X114070000Y-91280000D03*
G04 #@! TD*
G04 #@! TO.C,R63*
X108700000Y-61300000D03*
X111400000Y-61300000D03*
G04 #@! TD*
G04 #@! TO.C,R64*
X117100000Y-66000000D03*
X119800000Y-66000000D03*
G04 #@! TD*
G04 #@! TO.C,R65*
X114600000Y-36000000D03*
X117300000Y-36000000D03*
G04 #@! TD*
G04 #@! TO.C,R66*
X130300000Y-84200000D03*
X127600000Y-84200000D03*
G04 #@! TD*
G04 #@! TO.C,R67*
X126100000Y-55800000D03*
X128800000Y-55800000D03*
G04 #@! TD*
D29*
G04 #@! TO.C,R68*
X133400000Y-81400000D03*
X133400000Y-84100000D03*
G04 #@! TD*
D12*
G04 #@! TO.C,R69*
X128700000Y-58100000D03*
X126000000Y-58100000D03*
G04 #@! TD*
G04 #@! TO.C,R70*
X127700000Y-86600000D03*
X130400000Y-86600000D03*
G04 #@! TD*
D29*
G04 #@! TO.C,R72*
X131200000Y-47100000D03*
X131200000Y-49800000D03*
G04 #@! TD*
D12*
G04 #@! TO.C,R73*
X130300000Y-77500000D03*
X127600000Y-77500000D03*
G04 #@! TD*
G04 #@! TO.C,R74*
X128800000Y-51200000D03*
X126100000Y-51200000D03*
G04 #@! TD*
G04 #@! TO.C,R76*
X125900000Y-46500000D03*
X128600000Y-46500000D03*
G04 #@! TD*
G04 #@! TO.C,R77*
X114060000Y-84560000D03*
X111360000Y-84560000D03*
G04 #@! TD*
G04 #@! TO.C,R78*
X111400000Y-53400000D03*
X108700000Y-53400000D03*
G04 #@! TD*
G04 #@! TO.C,R79*
X123300000Y-38200000D03*
X120600000Y-38200000D03*
G04 #@! TD*
D29*
G04 #@! TO.C,R80*
X46000000Y-107400000D03*
X46000000Y-104700000D03*
G04 #@! TD*
G04 #@! TO.C,R81*
X48300000Y-104600000D03*
X48300000Y-107300000D03*
G04 #@! TD*
D12*
G04 #@! TO.C,R82*
X114070000Y-86880000D03*
X111370000Y-86880000D03*
G04 #@! TD*
G04 #@! TO.C,R83*
X111400000Y-58600000D03*
X108700000Y-58600000D03*
G04 #@! TD*
G04 #@! TO.C,R84*
X98100000Y-35100000D03*
X100800000Y-35100000D03*
G04 #@! TD*
G04 #@! TO.C,R86*
X100900000Y-37600000D03*
X98200000Y-37600000D03*
G04 #@! TD*
G04 #@! TO.C,R87*
X98200000Y-39600000D03*
X100900000Y-39600000D03*
G04 #@! TD*
D29*
G04 #@! TO.C,R88*
X78200000Y-79200000D03*
X78200000Y-81900000D03*
G04 #@! TD*
G04 #@! TO.C,R89*
X91042722Y-79300000D03*
X91042722Y-82000000D03*
G04 #@! TD*
G04 #@! TO.C,R91*
X83300000Y-79200000D03*
X83300000Y-81900000D03*
G04 #@! TD*
G04 #@! TO.C,R93*
X88300000Y-79300000D03*
X88300000Y-82000000D03*
G04 #@! TD*
G04 #@! TO.C,R94*
X95710371Y-107723797D03*
X95710371Y-105023797D03*
G04 #@! TD*
G04 #@! TO.C,R95*
X82796000Y-64376000D03*
X82796000Y-61676000D03*
G04 #@! TD*
G04 #@! TO.C,R96*
X85844000Y-56088000D03*
X85844000Y-58788000D03*
G04 #@! TD*
G04 #@! TO.C,R97*
X88384000Y-58948000D03*
X88384000Y-56248000D03*
G04 #@! TD*
G04 #@! TO.C,R98*
X90924000Y-58948000D03*
X90924000Y-56248000D03*
G04 #@! TD*
G04 #@! TO.C,R99*
X80256000Y-64376000D03*
X80256000Y-61676000D03*
G04 #@! TD*
G04 #@! TO.C,R100*
X90924000Y-64536000D03*
X90924000Y-61836000D03*
G04 #@! TD*
G04 #@! TO.C,R101*
X74969591Y-64607715D03*
X74969591Y-61907715D03*
G04 #@! TD*
G04 #@! TO.C,R102*
X74969591Y-59019715D03*
X74969591Y-56319715D03*
G04 #@! TD*
D12*
G04 #@! TO.C,R104*
X100900000Y-41600000D03*
X98200000Y-41600000D03*
G04 #@! TD*
D29*
G04 #@! TO.C,R199*
X70400000Y-107200000D03*
X70400000Y-104500000D03*
G04 #@! TD*
D12*
G04 #@! TO.C,R201*
X108000000Y-82600000D03*
X105300000Y-82600000D03*
G04 #@! TD*
D29*
G04 #@! TO.C,R203*
X105690000Y-69110000D03*
X105690000Y-71810000D03*
G04 #@! TD*
D12*
G04 #@! TO.C,R204*
X104600000Y-54400000D03*
X101900000Y-54400000D03*
G04 #@! TD*
G04 #@! TO.C,R206*
X102200000Y-43900000D03*
X104900000Y-43900000D03*
G04 #@! TD*
G04 #@! TO.C,R207*
X113970000Y-79670000D03*
X111270000Y-79670000D03*
G04 #@! TD*
G04 #@! TO.C,R208*
X111400000Y-48600000D03*
X108700000Y-48600000D03*
G04 #@! TD*
G04 #@! TO.C,R225*
X128600000Y-48600000D03*
X125900000Y-48600000D03*
G04 #@! TD*
D10*
G04 #@! TO.C,RV1*
X118360000Y-90100000D03*
D11*
X120900000Y-90100000D03*
X123440000Y-90100000D03*
G04 #@! TD*
D10*
G04 #@! TO.C,RV2*
X115900000Y-60400000D03*
D11*
X118440000Y-60400000D03*
X120980000Y-60400000D03*
G04 #@! TD*
D10*
G04 #@! TO.C,RV10*
X42254999Y-130600000D03*
D11*
X39714999Y-130600000D03*
X37174999Y-130600000D03*
G04 #@! TD*
D10*
G04 #@! TO.C,RV11*
X42254999Y-127000000D03*
D11*
X39714999Y-127000000D03*
X37174999Y-127000000D03*
G04 #@! TD*
D10*
G04 #@! TO.C,RV15*
X58700000Y-101300000D03*
D11*
X56160000Y-101300000D03*
X53620000Y-101300000D03*
G04 #@! TD*
D10*
G04 #@! TO.C,RV19*
X102800000Y-116460000D03*
D11*
X102800000Y-119000000D03*
X102800000Y-121540000D03*
G04 #@! TD*
D10*
G04 #@! TO.C,RV27*
X85610371Y-107423797D03*
D11*
X83070371Y-107423797D03*
X80530371Y-107423797D03*
G04 #@! TD*
D10*
G04 #@! TO.C,RV29*
X119100000Y-95600000D03*
D11*
X119100000Y-98140000D03*
X119100000Y-100680000D03*
G04 #@! TD*
D10*
G04 #@! TO.C,RV37*
X130000000Y-109080000D03*
D11*
X130000000Y-106540000D03*
X130000000Y-104000000D03*
G04 #@! TD*
D10*
G04 #@! TO.C,RV38*
X122737001Y-95635001D03*
D11*
X122737001Y-98175001D03*
X122737001Y-100715001D03*
G04 #@! TD*
D10*
G04 #@! TO.C,RV44*
X126387001Y-95635001D03*
D11*
X126387001Y-98175001D03*
X126387001Y-100715001D03*
G04 #@! TD*
D10*
G04 #@! TO.C,RV55*
X104300000Y-74800000D03*
D11*
X104300000Y-77340000D03*
X104300000Y-79880000D03*
G04 #@! TD*
D10*
G04 #@! TO.C,RV58*
X101500000Y-46620000D03*
D11*
X101500000Y-49160000D03*
X101500000Y-51700000D03*
G04 #@! TD*
D10*
G04 #@! TO.C,RV85*
X103900000Y-35100000D03*
D11*
X103900000Y-37640000D03*
X103900000Y-40180000D03*
G04 #@! TD*
D10*
G04 #@! TO.C,RV90*
X95810371Y-116403797D03*
D11*
X95810371Y-113863797D03*
X95810371Y-111323797D03*
G04 #@! TD*
D10*
G04 #@! TO.C,RV92*
X99410371Y-112123797D03*
D11*
X99410371Y-109583797D03*
X99410371Y-107043797D03*
G04 #@! TD*
D10*
G04 #@! TO.C,RV202*
X108000000Y-74820000D03*
D11*
X108000000Y-77360000D03*
X108000000Y-79900000D03*
G04 #@! TD*
D10*
G04 #@! TO.C,RV205*
X105200000Y-46620000D03*
D11*
X105200000Y-49160000D03*
X105200000Y-51700000D03*
G04 #@! TD*
D10*
G04 #@! TO.C,SW1*
X73000000Y-101500000D03*
D11*
X73000000Y-98960000D03*
G04 #@! TD*
D10*
G04 #@! TO.C,SW2*
X48700000Y-124400000D03*
D11*
X48700000Y-121860000D03*
G04 #@! TD*
D10*
G04 #@! TO.C,SW3*
X56400000Y-127900000D03*
D11*
X58940000Y-127900000D03*
X61480000Y-127900000D03*
G04 #@! TD*
D10*
G04 #@! TO.C,SW4*
X103100000Y-128200000D03*
D11*
X100560000Y-128200000D03*
G04 #@! TD*
D10*
G04 #@! TO.C,SW5*
X97800000Y-122500000D03*
D11*
X95260000Y-122500000D03*
G04 #@! TD*
D10*
G04 #@! TO.C,SW6*
X111100000Y-122200000D03*
D11*
X111100000Y-119660000D03*
X111100000Y-117120000D03*
G04 #@! TD*
D10*
G04 #@! TO.C,SW7*
X108100000Y-128200000D03*
D11*
X110640000Y-128200000D03*
G04 #@! TD*
D10*
G04 #@! TO.C,SW8*
X129200000Y-121500000D03*
D11*
X129200000Y-118960000D03*
G04 #@! TD*
D10*
G04 #@! TO.C,SW9*
X132900000Y-58700000D03*
D11*
X132900000Y-61240000D03*
G04 #@! TD*
D10*
G04 #@! TO.C,SW11*
X104760000Y-85400000D03*
D11*
X107300000Y-85400000D03*
G04 #@! TD*
D10*
G04 #@! TO.C,SW12*
X102360000Y-57200000D03*
D11*
X104900000Y-57200000D03*
G04 #@! TD*
D10*
G04 #@! TO.C,SW13*
X104760000Y-89050000D03*
D11*
X107300000Y-89050000D03*
G04 #@! TD*
D10*
G04 #@! TO.C,SW14*
X102382767Y-60800000D03*
D11*
X104922767Y-60800000D03*
G04 #@! TD*
D10*
G04 #@! TO.C,SW15*
X98500000Y-60200000D03*
D11*
X98500000Y-57660000D03*
G04 #@! TD*
D10*
G04 #@! TO.C,SW16*
X95100000Y-75480000D03*
D11*
X95100000Y-72940000D03*
X95100000Y-70400000D03*
G04 #@! TD*
D10*
G04 #@! TO.C,SW17*
X85000000Y-85300000D03*
D11*
X87540000Y-85300000D03*
G04 #@! TD*
D10*
G04 #@! TO.C,SW18*
X96300000Y-85300000D03*
D11*
X93760000Y-85300000D03*
X91220000Y-85300000D03*
G04 #@! TD*
D10*
G04 #@! TO.C,SW19*
X47700000Y-91480000D03*
D11*
X47700000Y-88940000D03*
X47700000Y-86400000D03*
X47700000Y-83860000D03*
G04 #@! TD*
D10*
G04 #@! TO.C,SW20*
X92200000Y-41440000D03*
D11*
X92200000Y-38900000D03*
X92200000Y-36360000D03*
G04 #@! TD*
D10*
G04 #@! TO.C,SW21*
X92200000Y-45200000D03*
D11*
X92200000Y-47740000D03*
X92200000Y-50280000D03*
G04 #@! TD*
D17*
G04 #@! TO.C,U1*
X64400000Y-110400000D03*
D30*
X49160000Y-118020000D03*
X61860000Y-110400000D03*
X51700000Y-118020000D03*
X59320000Y-110400000D03*
X54240000Y-118020000D03*
X56780000Y-110400000D03*
X56780000Y-118020000D03*
X54240000Y-110400000D03*
X59320000Y-118020000D03*
X51700000Y-110400000D03*
X61860000Y-118020000D03*
X49160000Y-110400000D03*
X64400000Y-118020000D03*
G04 #@! TD*
D17*
G04 #@! TO.C,U2*
X45720000Y-110300000D03*
D30*
X38100000Y-117920000D03*
X43180000Y-110300000D03*
X40640000Y-117920000D03*
X40640000Y-110300000D03*
X43180000Y-117920000D03*
X38100000Y-110300000D03*
X45720000Y-117920000D03*
G04 #@! TD*
D31*
G04 #@! TO.C,U3*
X86863370Y-119623796D03*
X86863370Y-118353796D03*
X86863370Y-117083796D03*
X86863370Y-115813796D03*
X86863370Y-114543796D03*
X86863370Y-113273796D03*
X86863370Y-112003796D03*
X86863370Y-110733796D03*
X79763370Y-110733796D03*
X79763370Y-112003796D03*
X79763370Y-113273796D03*
X79763370Y-114543796D03*
X79763370Y-115813796D03*
X79763370Y-117083796D03*
X79763370Y-118353796D03*
X79763370Y-119623796D03*
G04 #@! TD*
D32*
G04 #@! TO.C,U4*
X126059999Y-115337001D03*
X124789999Y-115337001D03*
X123519999Y-115337001D03*
X122249999Y-115337001D03*
X120979999Y-115337001D03*
X119709999Y-115337001D03*
X118439999Y-115337001D03*
X117169999Y-115337001D03*
X117169999Y-122437001D03*
X118439999Y-122437001D03*
X119709999Y-122437001D03*
X120979999Y-122437001D03*
X122249999Y-122437001D03*
X123519999Y-122437001D03*
X124789999Y-122437001D03*
X126059999Y-122437001D03*
G04 #@! TD*
D17*
G04 #@! TO.C,U5*
X117100000Y-71200000D03*
D30*
X124720000Y-86440000D03*
X117100000Y-73740000D03*
X124720000Y-83900000D03*
X117100000Y-76280000D03*
X124720000Y-81360000D03*
X117100000Y-78820000D03*
X124720000Y-78820000D03*
X117100000Y-81360000D03*
X124720000Y-76280000D03*
X117100000Y-83900000D03*
X124720000Y-73740000D03*
X117100000Y-86440000D03*
X124720000Y-71200000D03*
G04 #@! TD*
D17*
G04 #@! TO.C,U6*
X114800000Y-41000000D03*
D30*
X122420000Y-56240000D03*
X114800000Y-43540000D03*
X122420000Y-53700000D03*
X114800000Y-46080000D03*
X122420000Y-51160000D03*
X114800000Y-48620000D03*
X122420000Y-48620000D03*
X114800000Y-51160000D03*
X122420000Y-46080000D03*
X114800000Y-53700000D03*
X122420000Y-43540000D03*
X114800000Y-56240000D03*
X122420000Y-41000000D03*
G04 #@! TD*
D17*
G04 #@! TO.C,U7*
X75684000Y-76060000D03*
D30*
X90924000Y-68440000D03*
X78224000Y-76060000D03*
X88384000Y-68440000D03*
X80764000Y-76060000D03*
X85844000Y-68440000D03*
X83304000Y-76060000D03*
X83304000Y-68440000D03*
X85844000Y-76060000D03*
X80764000Y-68440000D03*
X88384000Y-76060000D03*
X78224000Y-68440000D03*
X90924000Y-76060000D03*
X75684000Y-68440000D03*
G04 #@! TD*
D17*
G04 #@! TO.C,U8*
X52895001Y-55952999D03*
D30*
X68135001Y-48332999D03*
X55435001Y-55952999D03*
X65595001Y-48332999D03*
X57975001Y-55952999D03*
X63055001Y-48332999D03*
X60515001Y-55952999D03*
X60515001Y-48332999D03*
X63055001Y-55952999D03*
X57975001Y-48332999D03*
X65595001Y-55952999D03*
X55435001Y-48332999D03*
X68135001Y-55952999D03*
X52895001Y-48332999D03*
G04 #@! TD*
D17*
G04 #@! TO.C,U9*
X77742591Y-39017435D03*
D30*
X85362591Y-46637435D03*
X77742591Y-41557435D03*
X85362591Y-44097435D03*
X77742591Y-44097435D03*
X85362591Y-41557435D03*
X77742591Y-46637435D03*
X85362591Y-39017435D03*
G04 #@! TD*
D33*
G04 #@! TO.C,Y1*
X54170000Y-63428000D03*
X59050000Y-63428000D03*
G04 #@! TD*
D11*
G04 #@! TO.C,J1*
X89660000Y-104400000D03*
D10*
X92200000Y-104400000D03*
G04 #@! TD*
D11*
G04 #@! TO.C,J4*
X88500000Y-35500000D03*
D10*
X85960000Y-35500000D03*
G04 #@! TD*
G04 #@! TO.C,J5*
X85800000Y-50500000D03*
D11*
X88340000Y-50500000D03*
G04 #@! TD*
M02*
