G04 #@! TF.GenerationSoftware,KiCad,Pcbnew,(5.0.0)*
G04 #@! TF.CreationDate,2018-10-21T00:29:04+08:00*
G04 #@! TF.ProjectId,SLMMK1,534C4D4D4B312E6B696361645F706362,rev?*
G04 #@! TF.SameCoordinates,Original*
G04 #@! TF.FileFunction,Soldermask,Bot*
G04 #@! TF.FilePolarity,Negative*
%FSLAX46Y46*%
G04 Gerber Fmt 4.6, Leading zero omitted, Abs format (unit mm)*
G04 Created by KiCad (PCBNEW (5.0.0)) date 10/21/18 00:29:04*
%MOMM*%
%LPD*%
G01*
G04 APERTURE LIST*
%ADD10R,2.100000X2.100000*%
%ADD11O,2.100000X2.100000*%
%ADD12C,2.400000*%
%ADD13O,2.400000X2.400000*%
%ADD14R,2.000000X2.000000*%
%ADD15C,2.000000*%
%ADD16R,2.200000X2.200000*%
%ADD17C,2.200000*%
%ADD18C,1.920000*%
%ADD19C,3.100000*%
%ADD20R,2.900000X4.400000*%
%ADD21R,4.400000X2.900000*%
%ADD22R,3.400000X3.400000*%
%ADD23C,3.400000*%
%ADD24R,1.920000X1.920000*%
%ADD25O,2.000000X2.000000*%
%ADD26C,1.900000*%
G04 APERTURE END LIST*
D10*
G04 #@! TO.C,J8*
X73900000Y-112640000D03*
D11*
X73900000Y-110100000D03*
G04 #@! TD*
D10*
G04 #@! TO.C,SW10*
X115500000Y-95600000D03*
D11*
X115500000Y-98140000D03*
X115500000Y-100680000D03*
G04 #@! TD*
D10*
G04 #@! TO.C,RV48*
X113100000Y-109740000D03*
D11*
X113100000Y-107200000D03*
X113100000Y-104660000D03*
G04 #@! TD*
D12*
G04 #@! TO.C,L1*
X68980000Y-35400000D03*
D13*
X63900000Y-35400000D03*
G04 #@! TD*
D10*
G04 #@! TO.C,BT1*
X44100000Y-84900000D03*
D11*
X44100000Y-87440000D03*
G04 #@! TD*
D10*
G04 #@! TO.C,BT2*
X44100000Y-91100000D03*
D11*
X44100000Y-93640000D03*
G04 #@! TD*
D14*
G04 #@! TO.C,C16*
X57500000Y-79100000D03*
D15*
X57500000Y-81600000D03*
G04 #@! TD*
D14*
G04 #@! TO.C,C18*
X57500000Y-87900000D03*
D15*
X57500000Y-90400000D03*
G04 #@! TD*
D16*
G04 #@! TO.C,D6*
X70000000Y-85900000D03*
D17*
X70000000Y-88440000D03*
G04 #@! TD*
D16*
G04 #@! TO.C,D13*
X70140000Y-66000000D03*
D17*
X67600000Y-66000000D03*
G04 #@! TD*
D18*
G04 #@! TO.C,J2*
X48300000Y-53530000D03*
X48300000Y-56070000D03*
X46300000Y-56070000D03*
X46300000Y-53530000D03*
D19*
X43600000Y-48800000D03*
X43600000Y-60800000D03*
G04 #@! TD*
D10*
G04 #@! TO.C,J3*
X68340000Y-44740000D03*
D11*
X65800000Y-44740000D03*
X68340000Y-42200000D03*
X65800000Y-42200000D03*
X68340000Y-39660000D03*
X65800000Y-39660000D03*
G04 #@! TD*
D20*
G04 #@! TO.C,J6*
X38400000Y-72300000D03*
D21*
X49100000Y-77600000D03*
D20*
X51100000Y-72300000D03*
G04 #@! TD*
G04 #@! TO.C,J7*
X38200000Y-37900000D03*
D21*
X48900000Y-43200000D03*
D20*
X50900000Y-37900000D03*
G04 #@! TD*
D22*
G04 #@! TO.C,J9*
X38200000Y-93180000D03*
D23*
X38200000Y-88100000D03*
X38200000Y-83020000D03*
G04 #@! TD*
D18*
G04 #@! TO.C,Q1*
X111706392Y-70166319D03*
X109166392Y-70166319D03*
D24*
X114246392Y-70166319D03*
G04 #@! TD*
D18*
G04 #@! TO.C,Q2*
X109460000Y-39800000D03*
X106920000Y-39800000D03*
D24*
X112000000Y-39800000D03*
G04 #@! TD*
D18*
G04 #@! TO.C,Q3*
X111706392Y-66062300D03*
X114246392Y-66062300D03*
D24*
X109166392Y-66062300D03*
G04 #@! TD*
D18*
G04 #@! TO.C,Q4*
X109440000Y-35700000D03*
X111980000Y-35700000D03*
D24*
X106900000Y-35700000D03*
G04 #@! TD*
D18*
G04 #@! TO.C,Q5*
X130240000Y-74000000D03*
X132780000Y-74000000D03*
D24*
X127700000Y-74000000D03*
G04 #@! TD*
D18*
G04 #@! TO.C,Q6*
X128040000Y-43400000D03*
X130580000Y-43400000D03*
D24*
X125500000Y-43400000D03*
G04 #@! TD*
D18*
G04 #@! TO.C,Q7*
X80256000Y-57772000D03*
X82796000Y-57772000D03*
D24*
X77716000Y-57772000D03*
G04 #@! TD*
D18*
G04 #@! TO.C,Q8*
X67387001Y-101275001D03*
X69927001Y-101275001D03*
D24*
X64847001Y-101275001D03*
G04 #@! TD*
D18*
G04 #@! TO.C,Q9*
X77600000Y-86960000D03*
X77600000Y-84420000D03*
D24*
X77600000Y-89500000D03*
G04 #@! TD*
D10*
G04 #@! TO.C,RV1*
X118360000Y-90100000D03*
D11*
X120900000Y-90100000D03*
X123440000Y-90100000D03*
G04 #@! TD*
D10*
G04 #@! TO.C,RV2*
X115900000Y-60400000D03*
D11*
X118440000Y-60400000D03*
X120980000Y-60400000D03*
G04 #@! TD*
D10*
G04 #@! TO.C,RV10*
X42254999Y-130600000D03*
D11*
X39714999Y-130600000D03*
X37174999Y-130600000D03*
G04 #@! TD*
D10*
G04 #@! TO.C,RV11*
X42254999Y-127000000D03*
D11*
X39714999Y-127000000D03*
X37174999Y-127000000D03*
G04 #@! TD*
D10*
G04 #@! TO.C,RV15*
X58700000Y-101300000D03*
D11*
X56160000Y-101300000D03*
X53620000Y-101300000D03*
G04 #@! TD*
D10*
G04 #@! TO.C,RV19*
X102800000Y-116460000D03*
D11*
X102800000Y-119000000D03*
X102800000Y-121540000D03*
G04 #@! TD*
D10*
G04 #@! TO.C,RV27*
X85610371Y-107423797D03*
D11*
X83070371Y-107423797D03*
X80530371Y-107423797D03*
G04 #@! TD*
D10*
G04 #@! TO.C,RV29*
X119100000Y-95600000D03*
D11*
X119100000Y-98140000D03*
X119100000Y-100680000D03*
G04 #@! TD*
D10*
G04 #@! TO.C,RV37*
X130000000Y-109080000D03*
D11*
X130000000Y-106540000D03*
X130000000Y-104000000D03*
G04 #@! TD*
D10*
G04 #@! TO.C,RV38*
X122737001Y-95635001D03*
D11*
X122737001Y-98175001D03*
X122737001Y-100715001D03*
G04 #@! TD*
D10*
G04 #@! TO.C,RV44*
X126387001Y-95635001D03*
D11*
X126387001Y-98175001D03*
X126387001Y-100715001D03*
G04 #@! TD*
D10*
G04 #@! TO.C,RV55*
X104300000Y-74800000D03*
D11*
X104300000Y-77340000D03*
X104300000Y-79880000D03*
G04 #@! TD*
D10*
G04 #@! TO.C,RV58*
X101500000Y-46620000D03*
D11*
X101500000Y-49160000D03*
X101500000Y-51700000D03*
G04 #@! TD*
D10*
G04 #@! TO.C,RV85*
X103900000Y-35100000D03*
D11*
X103900000Y-37640000D03*
X103900000Y-40180000D03*
G04 #@! TD*
D10*
G04 #@! TO.C,RV90*
X95810371Y-116403797D03*
D11*
X95810371Y-113863797D03*
X95810371Y-111323797D03*
G04 #@! TD*
D10*
G04 #@! TO.C,RV92*
X99410371Y-112123797D03*
D11*
X99410371Y-109583797D03*
X99410371Y-107043797D03*
G04 #@! TD*
D10*
G04 #@! TO.C,RV202*
X108000000Y-74820000D03*
D11*
X108000000Y-77360000D03*
X108000000Y-79900000D03*
G04 #@! TD*
D10*
G04 #@! TO.C,RV205*
X105200000Y-46620000D03*
D11*
X105200000Y-49160000D03*
X105200000Y-51700000D03*
G04 #@! TD*
D10*
G04 #@! TO.C,SW1*
X73000000Y-101500000D03*
D11*
X73000000Y-98960000D03*
G04 #@! TD*
D10*
G04 #@! TO.C,SW2*
X48700000Y-124400000D03*
D11*
X48700000Y-121860000D03*
G04 #@! TD*
D10*
G04 #@! TO.C,SW3*
X56400000Y-127900000D03*
D11*
X58940000Y-127900000D03*
X61480000Y-127900000D03*
G04 #@! TD*
D10*
G04 #@! TO.C,SW4*
X103100000Y-128200000D03*
D11*
X100560000Y-128200000D03*
G04 #@! TD*
D10*
G04 #@! TO.C,SW5*
X97800000Y-122500000D03*
D11*
X95260000Y-122500000D03*
G04 #@! TD*
D10*
G04 #@! TO.C,SW6*
X111100000Y-122200000D03*
D11*
X111100000Y-119660000D03*
X111100000Y-117120000D03*
G04 #@! TD*
D10*
G04 #@! TO.C,SW7*
X108100000Y-128200000D03*
D11*
X110640000Y-128200000D03*
G04 #@! TD*
D10*
G04 #@! TO.C,SW8*
X129200000Y-121500000D03*
D11*
X129200000Y-118960000D03*
G04 #@! TD*
D10*
G04 #@! TO.C,SW9*
X132900000Y-58700000D03*
D11*
X132900000Y-61240000D03*
G04 #@! TD*
D10*
G04 #@! TO.C,SW11*
X104760000Y-85400000D03*
D11*
X107300000Y-85400000D03*
G04 #@! TD*
D10*
G04 #@! TO.C,SW12*
X102360000Y-57200000D03*
D11*
X104900000Y-57200000D03*
G04 #@! TD*
D10*
G04 #@! TO.C,SW13*
X104760000Y-89050000D03*
D11*
X107300000Y-89050000D03*
G04 #@! TD*
D10*
G04 #@! TO.C,SW14*
X102382767Y-60800000D03*
D11*
X104922767Y-60800000D03*
G04 #@! TD*
D10*
G04 #@! TO.C,SW15*
X98500000Y-60200000D03*
D11*
X98500000Y-57660000D03*
G04 #@! TD*
D10*
G04 #@! TO.C,SW16*
X95100000Y-75480000D03*
D11*
X95100000Y-72940000D03*
X95100000Y-70400000D03*
G04 #@! TD*
D10*
G04 #@! TO.C,SW17*
X85000000Y-85300000D03*
D11*
X87540000Y-85300000D03*
G04 #@! TD*
D10*
G04 #@! TO.C,SW18*
X96300000Y-85300000D03*
D11*
X93760000Y-85300000D03*
X91220000Y-85300000D03*
G04 #@! TD*
D10*
G04 #@! TO.C,SW19*
X47700000Y-91480000D03*
D11*
X47700000Y-88940000D03*
X47700000Y-86400000D03*
X47700000Y-83860000D03*
G04 #@! TD*
D10*
G04 #@! TO.C,SW20*
X92200000Y-41440000D03*
D11*
X92200000Y-38900000D03*
X92200000Y-36360000D03*
G04 #@! TD*
D10*
G04 #@! TO.C,SW21*
X92200000Y-45200000D03*
D11*
X92200000Y-47740000D03*
X92200000Y-50280000D03*
G04 #@! TD*
D14*
G04 #@! TO.C,U1*
X64400000Y-110400000D03*
D25*
X49160000Y-118020000D03*
X61860000Y-110400000D03*
X51700000Y-118020000D03*
X59320000Y-110400000D03*
X54240000Y-118020000D03*
X56780000Y-110400000D03*
X56780000Y-118020000D03*
X54240000Y-110400000D03*
X59320000Y-118020000D03*
X51700000Y-110400000D03*
X61860000Y-118020000D03*
X49160000Y-110400000D03*
X64400000Y-118020000D03*
G04 #@! TD*
D14*
G04 #@! TO.C,U2*
X45720000Y-110300000D03*
D25*
X38100000Y-117920000D03*
X43180000Y-110300000D03*
X40640000Y-117920000D03*
X40640000Y-110300000D03*
X43180000Y-117920000D03*
X38100000Y-110300000D03*
X45720000Y-117920000D03*
G04 #@! TD*
D14*
G04 #@! TO.C,U5*
X117100000Y-71200000D03*
D25*
X124720000Y-86440000D03*
X117100000Y-73740000D03*
X124720000Y-83900000D03*
X117100000Y-76280000D03*
X124720000Y-81360000D03*
X117100000Y-78820000D03*
X124720000Y-78820000D03*
X117100000Y-81360000D03*
X124720000Y-76280000D03*
X117100000Y-83900000D03*
X124720000Y-73740000D03*
X117100000Y-86440000D03*
X124720000Y-71200000D03*
G04 #@! TD*
D14*
G04 #@! TO.C,U6*
X114800000Y-41000000D03*
D25*
X122420000Y-56240000D03*
X114800000Y-43540000D03*
X122420000Y-53700000D03*
X114800000Y-46080000D03*
X122420000Y-51160000D03*
X114800000Y-48620000D03*
X122420000Y-48620000D03*
X114800000Y-51160000D03*
X122420000Y-46080000D03*
X114800000Y-53700000D03*
X122420000Y-43540000D03*
X114800000Y-56240000D03*
X122420000Y-41000000D03*
G04 #@! TD*
D14*
G04 #@! TO.C,U7*
X75684000Y-76060000D03*
D25*
X90924000Y-68440000D03*
X78224000Y-76060000D03*
X88384000Y-68440000D03*
X80764000Y-76060000D03*
X85844000Y-68440000D03*
X83304000Y-76060000D03*
X83304000Y-68440000D03*
X85844000Y-76060000D03*
X80764000Y-68440000D03*
X88384000Y-76060000D03*
X78224000Y-68440000D03*
X90924000Y-76060000D03*
X75684000Y-68440000D03*
G04 #@! TD*
D14*
G04 #@! TO.C,U8*
X52895001Y-55952999D03*
D25*
X68135001Y-48332999D03*
X55435001Y-55952999D03*
X65595001Y-48332999D03*
X57975001Y-55952999D03*
X63055001Y-48332999D03*
X60515001Y-55952999D03*
X60515001Y-48332999D03*
X63055001Y-55952999D03*
X57975001Y-48332999D03*
X65595001Y-55952999D03*
X55435001Y-48332999D03*
X68135001Y-55952999D03*
X52895001Y-48332999D03*
G04 #@! TD*
D14*
G04 #@! TO.C,U9*
X77742591Y-39017435D03*
D25*
X85362591Y-46637435D03*
X77742591Y-41557435D03*
X85362591Y-44097435D03*
X77742591Y-44097435D03*
X85362591Y-41557435D03*
X77742591Y-46637435D03*
X85362591Y-39017435D03*
G04 #@! TD*
D26*
G04 #@! TO.C,Y1*
X54170000Y-63428000D03*
X59050000Y-63428000D03*
G04 #@! TD*
D11*
G04 #@! TO.C,J1*
X89660000Y-104400000D03*
D10*
X92200000Y-104400000D03*
G04 #@! TD*
D11*
G04 #@! TO.C,J4*
X88500000Y-35500000D03*
D10*
X85960000Y-35500000D03*
G04 #@! TD*
G04 #@! TO.C,J5*
X85800000Y-50500000D03*
D11*
X88340000Y-50500000D03*
G04 #@! TD*
M02*
